<?xml version="1.0" encoding="UTF-8" standalone="no"?>
<svg
   width="302"
   height="258"
   viewBox="0 0 302 258"
   version="1.1"
   id="svg14"
   sodipodi:docname="logosvg.svg"
   inkscape:version="1.4.2 (f4327f4, 2025-05-13)"
   xmlns:inkscape="http://www.inkscape.org/namespaces/inkscape"
   xmlns:sodipodi="http://sodipodi.sourceforge.net/DTD/sodipodi-0.dtd"
   xmlns="http://www.w3.org/2000/svg"
   xmlns:svg="http://www.w3.org/2000/svg">
  <defs
     id="defs14" />
  <sodipodi:namedview
     id="namedview14"
     pagecolor="#505050"
     bordercolor="#eeeeee"
     borderopacity="1"
     inkscape:showpageshadow="0"
     inkscape:pageopacity="0"
     inkscape:pagecheckerboard="0"
     inkscape:deskcolor="#505050"
     inkscape:zoom="1.5639535"
     inkscape:cx="31.97026"
     inkscape:cy="201.73234"
     inkscape:window-width="1920"
     inkscape:window-height="1009"
     inkscape:window-x="-8"
     inkscape:window-y="-8"
     inkscape:window-maximized="1"
     inkscape:current-layer="svg14" />
  <path
     fill="#2C8392"
     transform="matrix(1.91139 0 0 1.91111 -6.10352e-05 0)"
     d="M85.9232 28.0357C91.9411 27.7632 103.809 29.9368 105.921 37.1705C106.659 39.6987 103.727 43.5025 102.775 46.0151L89.491 81.4773L83.741 96.4841C83.3011 97.6464 82.3166 101.104 81.8332 101.892C79.1711 106.231 73.0661 110.131 70.4393 114.142C67.5324 117.331 63.5049 119.96 60.6327 123.686C61.4719 117.351 60.6395 112.014 60.1776 105.72C59.9239 102.262 60.0273 98.7517 59.5139 95.2882C60.3863 93.7676 61.3989 89.4687 62.3544 87.2503C67.3858 75.569 71.4578 63.1003 76.3517 51.3851C78.0549 47.308 83.7787 30.6412 85.9232 28.0357Z"
     id="path2"
     style="fill:#36707e;fill-opacity:1" />
  <path
     fill="white"
     transform="matrix(1.91139 0 0 1.91111 -6.10352e-05 0)"
     d="M87.3327 47.8073C88.6282 48.3431 90.389 49.3143 91.6806 49.9833C90.1052 52.7386 88.3845 58.9631 87.0779 62.1995C84.4313 68.7548 81.8693 75.4364 79.3045 82.0421C77.3167 87.1618 76.0545 91.816 73.752 97.0141C71.8921 96.237 71.3223 96.0504 69.3378 95.8233C70.561 92.9624 71.3397 89.4941 72.5627 86.7793C75.3115 80.677 77.3065 74.5595 79.6801 68.333L84.1557 56.9235C85.4864 53.5959 86.9207 51.3603 87.3327 47.8073Z"
     id="path3"
     style="fill:#bbdada;fill-opacity:1" />
  <path
     fill="white"
     transform="matrix(1.91139 0 0 1.91111 -6.10352e-05 0)"
     d="M81.4502 46.9076C82.3939 47.0039 83.4392 47.0339 84.1851 47.6057C84.4637 48.2577 84.4578 48.4372 84.2084 49.1377C80.7045 58.9897 76.9412 68.7807 72.9981 78.4665C72.0486 80.7989 71.4896 83.4599 70.4948 85.785C69.0854 89.079 67.5212 92.0546 66.4574 95.5022L63.5276 93.8419C63.3063 93.2328 79.8843 50.8981 81.4502 46.9076Z"
     id="path4"
     style="fill:#bbdada;fill-opacity:1" />
  <path
     fill="white"
     transform="matrix(1.91139 0 0 1.91111 -6.10352e-05 0)"
     d="M93.669 50.8018C94.8077 51.3698 95.809 52.364 96.7602 53.2237C94.6208 56.9939 93.816 61.4183 92.1689 65.3867C88.7381 73.653 85.6993 82.0871 82.6213 90.4912C81.6422 93.1645 80.7516 95.9019 79.5942 98.4987C79.4422 98.8399 78.4838 98.7968 78.1136 98.8252L75.7341 99.8369C77.3307 92.5886 78.4212 92.0056 80.8133 85.7272L89.7485 61.9047C91.5806 57.0689 92.6536 56.1495 93.669 50.8018Z"
     id="path5"
     style="fill:#bbdada;fill-opacity:1" />
  <path
     fill="white"
     transform="matrix(1.91139 0 0 1.91111 -6.10352e-05 0)"
     d="M87.5027 31.0274C93.5591 30.9842 98.79 33.0766 102.791 37.6919C101.804 39.8579 101.224 42.0405 100.382 44.2497C100.103 44.9807 100.017 45.057 99.4349 45.2813C93.186 41.3966 91.1472 39.4641 83.6821 39.2383C86.2776 36.3588 86.8685 34.7966 87.5027 31.0274Z"
     id="path6"
     style="fill:#bbdada;fill-opacity:1" />
  <path
     fill="white"
     transform="matrix(1.91139 0 0 1.91111 -6.10352e-05 0)"
     d="M62.3375 95.9174C66.3483 96.2967 65.8609 98.5472 66.1772 101.971C67.6603 98.5069 67.6271 98.1877 71.3831 98.3042C73.1103 100.904 72.8744 101.449 72.2851 104.502C74.7023 102.486 75.0707 102.109 78.1142 101.368C77.1113 102.61 76.0969 103.842 75.0712 105.066C72.3972 107.815 69.8264 110.452 67.0415 113.087C65.6652 111.789 65.4072 111.876 63.5958 111.216C62.6005 109.922 62.0776 98.1146 62.3375 95.9174Z"
     id="path7"
     style="fill:#bbdada;fill-opacity:1" />
  <path
     fill="white"
     transform="matrix(1.91139 0 0 1.91111 -6.10352e-05 0)"
     d="M82.9819 43.0973C85.2209 43.0051 87.0792 42.9972 89.2815 43.5546C92.3167 44.3227 98.8096 47.0389 97.8224 50.9308C94.3054 48.8932 91.5209 46.0721 87.3626 44.9953C86.4148 44.7499 83.4864 44.4783 82.9217 43.8265L82.9819 43.0973Z"
     id="path8"
     style="fill:#bbdada;fill-opacity:1" />
  <path
     fill="#2C8392"
     transform="matrix(1.91139 0 0 1.91111 -6.10352e-05 0)"
     d="M106.865 48.0082C112.088 47.5423 112.159 49.3683 116.132 51.8949C124.634 57.2964 133.077 62.7905 141.46 68.3763C137.11 70.4126 132.155 74.143 128.019 76.8166C123.35 79.834 118.698 82.8155 114 85.7909C112.356 86.9063 111.29 88.5233 108.935 88.846C105.639 89.2977 104.978 84.9811 106.294 82.8911C106.777 82.1234 109.972 80.7511 110.996 79.9374C115.8 76.1207 124.5 72.4306 128.525 68.1558C125.709 65.662 106.145 53.321 105.868 52.4669C105.332 50.8178 106.146 49.4333 106.865 48.0082Z"
     id="path9"
     style="fill:#36707e;fill-opacity:1" />
  <path
     fill="#2C8392"
     transform="matrix(1.91139 0 0 1.91111 -6.10352e-05 0)"
     d="M47.8928 47.7283C51.8596 47.6266 52.8362 51.974 49.7558 54.2025C47.556 55.7939 45.2809 57.1454 42.9437 58.5181C37.7485 61.5694 32.6956 65.1587 27.4103 68.0279C31.1842 70.1301 50.5526 82.5354 52.0431 84.6695C52.741 87.6671 49.9892 88.445 47.7567 89.2702L45.8791 87.6755C41.7294 84.1729 32.8029 79.4873 28.0676 76.2278C24.1523 73.5328 20.2146 70.5466 16.0298 68.4164C18.6087 66.3303 20.5711 65.2876 23.169 63.4833C31.1745 57.9231 39.6738 52.9194 47.8928 47.7283Z"
     id="path10"
     style="fill:#36707e;fill-opacity:1" />
</svg>
